<svg xmlns="http://www.w3.org/2000/svg" xmlns:xlink="http://www.w3.org/1999/xlink" width="250" zoomAndPan="magnify" viewBox="0 0 187.5 41.25" height="55" preserveAspectRatio="xMidYMid meet" version="1.0"><defs><g/><clipPath id="d3b3827c9f"><path d="M 9.589844 5.300781 L 177.914062 5.300781 L 177.914062 35.382812 L 9.589844 35.382812 Z M 9.589844 5.300781 " clip-rule="nonzero"/></clipPath><clipPath id="f09ef68aa2"><path d="M 11.804688 5.300781 L 175.695312 5.300781 C 176.917969 5.300781 177.910156 6.292969 177.910156 7.515625 L 177.910156 33.105469 C 177.910156 34.332031 176.917969 35.320312 175.695312 35.320312 L 11.804688 35.320312 C 10.582031 35.320312 9.589844 34.332031 9.589844 33.105469 L 9.589844 7.515625 C 9.589844 6.292969 10.582031 5.300781 11.804688 5.300781 " clip-rule="nonzero"/></clipPath></defs><g clip-path="url(#d3b3827c9f)"><g clip-path="url(#f09ef68aa2)"><path fill="#5271ff" d="M 9.589844 5.300781 L 177.914062 5.300781 L 177.914062 35.382812 L 9.589844 35.382812 Z M 9.589844 5.300781 " fill-opacity="1" fill-rule="nonzero"/></g></g><g fill="#f7b43d" fill-opacity="1"><g transform="translate(12.789878, 24.422096)"><g><path d="M 1.199219 -0.566406 L 1.308594 -0.15625 L 1.605469 0 L 1.921875 0.03125 L 2.582031 -0.015625 L 3.199219 0.015625 L 3.796875 -0.015625 L 4.097656 0.03125 L 4.441406 0 L 7.5625 0.015625 L 7.859375 -0.140625 L 8.035156 -0.628906 L 8.019531 -1.90625 L 7.875 -2.378906 L 7.59375 -2.566406 L 7.261719 -2.535156 L 6.964844 -2.472656 L 6.632812 -2.519531 L 5.988281 -2.503906 L 5.671875 -2.566406 L 5.386719 -2.519531 L 4.773438 -2.550781 L 4.441406 -2.519531 L 4.128906 -2.648438 L 4 -2.960938 L 4.015625 -8.300781 L 3.984375 -8.679688 L 4.015625 -9.308594 L 3.96875 -10.207031 L 3.984375 -10.507812 L 3.828125 -10.855469 L 3.511719 -11.042969 L 2.898438 -11.042969 L 2.582031 -10.980469 L 1.953125 -11.042969 L 1.652344 -10.996094 L 1.324219 -10.871094 L 1.179688 -10.523438 L 1.179688 -8.316406 L 1.148438 -8.019531 L 1.179688 -7.703125 L 1.132812 -7.121094 L 1.148438 -6.773438 L 1.179688 -6.476562 Z M 1.199219 -0.566406 "/></g></g></g><g fill="#f7b43d" fill-opacity="1"><g transform="translate(21.264673, 24.422096)"><g><path d="M 9.292969 0.03125 L 9.894531 -0.015625 L 10.191406 0.015625 L 10.679688 0 L 11.121094 -0.078125 L 11.167969 -0.457031 L 11.058594 -0.820312 L 10.824219 -1.402344 L 10.398438 -2.222656 L 10.175781 -2.804688 L 9.863281 -3.371094 L 9.261719 -4.804688 L 9.105469 -5.042969 L 8.949219 -5.339844 L 8.855469 -5.6875 L 8.710938 -5.921875 L 8.617188 -6.175781 L 8.285156 -6.757812 L 8.175781 -7.089844 L 7.136719 -9.277344 L 7.042969 -9.59375 L 6.867188 -9.878906 L 6.773438 -10.160156 L 6.476562 -10.710938 L 6.207031 -10.996094 L 5.6875 -11.152344 L 5.183594 -10.980469 L 4.898438 -10.710938 L 4.757812 -10.445312 L 4.648438 -10.128906 L 4.503906 -9.910156 L 3.875 -8.460938 L 3.703125 -8.222656 L 3.625 -7.910156 L 3.449219 -7.609375 L 3.355469 -7.324219 L 1.75 -3.953125 L 1.652344 -3.609375 L 1.496094 -3.371094 L 1.386719 -3.054688 L 1.101562 -2.550781 L 0.867188 -1.921875 L 0.691406 -1.703125 L 0.613281 -1.417969 L 0.300781 -0.789062 L 0.203125 -0.472656 L 0.285156 -0.078125 L 0.597656 0.015625 L 1.214844 -0.015625 L 1.527344 0.015625 L 2.410156 -0.015625 L 2.773438 -0.125 L 3.070312 -0.410156 L 3.355469 -0.929688 L 3.65625 -1.230469 L 3.984375 -1.402344 L 4.285156 -1.355469 L 4.945312 -1.417969 L 5.230469 -1.371094 L 6.773438 -1.386719 L 7.058594 -1.355469 L 7.402344 -1.402344 L 7.75 -1.230469 L 8.050781 -0.976562 L 8.191406 -0.675781 L 8.285156 -0.394531 L 8.601562 -0.15625 L 8.964844 0 Z M 5.71875 -3.890625 L 5.402344 -3.953125 L 5.042969 -3.921875 L 4.789062 -4.03125 L 4.773438 -4.332031 L 5.515625 -6.035156 L 5.6875 -6.175781 L 5.90625 -6.050781 L 6.648438 -4.316406 L 6.585938 -4.03125 L 6.347656 -3.90625 Z M 5.71875 -3.890625 "/></g></g></g><g fill="#f7b43d" fill-opacity="1"><g transform="translate(32.700921, 24.422096)"><g><path d="M 9.292969 -0.269531 L 9.71875 -0.015625 L 10.160156 0.03125 L 10.507812 -0.078125 L 10.664062 -0.394531 L 10.695312 -6.144531 L 10.648438 -6.410156 L 10.648438 -7.972656 L 10.695312 -8.347656 L 10.648438 -10.539062 L 10.492188 -10.855469 L 10.175781 -11.027344 L 8.222656 -11.011719 L 7.925781 -10.839844 L 7.75 -10.507812 L 7.734375 -10.175781 L 7.78125 -9.925781 L 7.734375 -9.261719 L 7.765625 -8.917969 L 7.734375 -6.097656 L 7.640625 -5.828125 L 7.402344 -5.9375 L 6.285156 -7.058594 L 5.84375 -7.402344 L 2.742188 -10.539062 L 2.503906 -10.726562 L 2.140625 -10.917969 L 1.667969 -11.027344 L 1.308594 -10.871094 L 1.164062 -10.570312 L 1.164062 -5.796875 L 1.148438 -5.53125 L 1.179688 -4.882812 L 1.132812 -4.617188 L 1.164062 -2.03125 L 1.132812 -1.734375 L 1.164062 -0.410156 L 1.308594 -0.109375 L 1.636719 0 L 2.285156 0.03125 L 2.632812 0 L 3.246094 0.046875 L 3.574219 0.03125 L 3.890625 -0.125 L 4.046875 -0.613281 L 4.066406 -4.601562 L 4.097656 -4.914062 L 4.207031 -5.183594 L 4.410156 -5.105469 L 4.617188 -4.835938 L 5.734375 -3.765625 L 5.9375 -3.527344 L 6.207031 -3.355469 L 8.648438 -0.929688 L 9.058594 -0.472656 Z M 9.292969 -0.269531 "/></g></g></g><g fill="#f7b43d" fill-opacity="1"><g transform="translate(44.578232, 24.422096)"><g><path d="M 5.464844 0.15625 L 7.042969 0.15625 L 8.222656 -0.125 L 9.34375 -0.691406 L 9.832031 -1.070312 L 10.066406 -1.324219 L 10.304688 -1.511719 L 10.492188 -1.734375 L 10.648438 -2 L 10.792969 -2.285156 L 10.980469 -2.503906 L 11.296875 -3.433594 L 11.421875 -4.03125 L 11.4375 -4.300781 L 11.5 -4.585938 L 11.5 -4.898438 L 11.53125 -5.199219 L 11.5 -5.796875 L 11.34375 -6.066406 L 11.042969 -6.222656 L 10.710938 -6.238281 L 10.382812 -6.285156 L 8.253906 -6.238281 L 7.308594 -6.300781 L 6.710938 -6.253906 L 6.394531 -6.097656 L 6.253906 -5.796875 L 6.253906 -4.300781 L 6.394531 -4.046875 L 6.679688 -3.875 L 7.136719 -3.84375 L 7.925781 -3.90625 L 8.207031 -3.859375 L 8.445312 -3.75 L 8.492188 -3.480469 L 8.332031 -3.214844 L 8.097656 -2.945312 L 7.875 -2.773438 L 7.355469 -2.566406 L 6.742188 -2.425781 L 6.332031 -2.410156 L 5.53125 -2.503906 L 4.679688 -2.851562 L 4.207031 -3.292969 L 4.03125 -3.511719 L 3.734375 -4.082031 L 3.609375 -4.535156 L 3.527344 -5.042969 L 3.511719 -5.953125 L 3.625 -6.570312 L 3.875 -7.136719 L 4.363281 -7.875 L 4.914062 -8.269531 L 5.183594 -8.414062 L 5.480469 -8.445312 L 5.75 -8.570312 L 6.710938 -8.601562 L 7.292969 -8.445312 L 7.59375 -8.316406 L 7.894531 -8.113281 L 8.082031 -7.910156 L 8.285156 -7.640625 L 8.617188 -7.371094 L 8.996094 -7.261719 L 9.484375 -7.246094 L 9.957031 -7.308594 L 10.710938 -7.261719 L 11.105469 -7.4375 L 11.199219 -7.703125 L 10.980469 -8.347656 L 10.839844 -8.632812 L 10.207031 -9.546875 L 9.863281 -9.832031 L 9.609375 -10.066406 L 9.375 -10.253906 L 8.269531 -10.839844 L 7.941406 -10.902344 L 7.199219 -11.105469 L 5.734375 -11.167969 L 5.417969 -11.152344 L 5.152344 -11.058594 L 4.851562 -11.042969 L 3.640625 -10.601562 L 2.773438 -10.066406 L 2.078125 -9.453125 L 1.875 -9.199219 L 1.636719 -8.964844 L 1.464844 -8.726562 L 0.882812 -7.546875 L 0.597656 -5.988281 L 0.582031 -5.480469 L 0.660156 -4.378906 L 1.101562 -2.898438 L 1.386719 -2.363281 L 1.75 -1.828125 L 2.378906 -1.164062 L 2.898438 -0.804688 L 3.984375 -0.171875 L 4.253906 -0.09375 L 5.152344 0.0625 Z M 5.464844 0.15625 "/></g></g></g><g fill="#f7b43d" fill-opacity="1"><g transform="translate(56.644569, 24.422096)"><g><path d="M 5.417969 0.203125 L 5.890625 0.15625 L 6.191406 0.171875 L 7.421875 -0.140625 L 7.988281 -0.441406 L 8.507812 -0.789062 L 8.949219 -1.230469 L 9.308594 -1.78125 L 9.40625 -2.09375 L 9.5625 -2.363281 L 9.703125 -3.023438 L 9.78125 -3.78125 L 9.78125 -8.035156 L 9.75 -8.332031 L 9.78125 -8.679688 L 9.75 -8.933594 L 9.75 -10.238281 L 9.796875 -10.554688 L 9.59375 -10.886719 L 9.246094 -10.996094 L 8.253906 -10.964844 L 7.59375 -11.011719 L 7.261719 -10.855469 L 7.089844 -10.507812 L 7.121094 -4.300781 L 7.011719 -3.324219 L 6.914062 -3.085938 L 6.742188 -2.773438 L 6.476562 -2.582031 L 5.921875 -2.378906 L 4.976562 -2.378906 L 4.617188 -2.457031 L 4.347656 -2.613281 L 4.097656 -2.804688 L 3.90625 -3.054688 L 3.8125 -3.355469 L 3.71875 -4.269531 L 3.765625 -9.34375 L 3.734375 -9.578125 L 3.765625 -10.082031 L 3.734375 -10.539062 L 3.542969 -10.886719 L 3.214844 -11.027344 L 2.914062 -11.027344 L 2.597656 -10.980469 L 1.921875 -11.042969 L 1.589844 -10.996094 L 1.261719 -10.871094 L 1.054688 -10.570312 L 1.085938 -10.253906 L 1.085938 -9.878906 L 1.054688 -9.625 L 1.101562 -7.421875 L 1.054688 -7.105469 L 1.085938 -6.804688 L 1.039062 -4.269531 L 1.132812 -3.007812 L 1.292969 -2.363281 L 1.542969 -1.828125 L 1.90625 -1.261719 L 2.09375 -1.039062 L 2.332031 -0.835938 L 2.835938 -0.503906 L 3.152344 -0.363281 L 3.386719 -0.21875 L 3.984375 0.046875 L 4.601562 0.171875 L 4.914062 0.171875 Z M 5.417969 0.203125 "/></g></g></g><g fill="#f7b43d" fill-opacity="1"><g transform="translate(67.513726, 24.422096)"><g><path d="M 9.292969 0.03125 L 9.894531 -0.015625 L 10.191406 0.015625 L 10.679688 0 L 11.121094 -0.078125 L 11.167969 -0.457031 L 11.058594 -0.820312 L 10.824219 -1.402344 L 10.398438 -2.222656 L 10.175781 -2.804688 L 9.863281 -3.371094 L 9.261719 -4.804688 L 9.105469 -5.042969 L 8.949219 -5.339844 L 8.855469 -5.6875 L 8.710938 -5.921875 L 8.617188 -6.175781 L 8.285156 -6.757812 L 8.175781 -7.089844 L 7.136719 -9.277344 L 7.042969 -9.59375 L 6.867188 -9.878906 L 6.773438 -10.160156 L 6.476562 -10.710938 L 6.207031 -10.996094 L 5.6875 -11.152344 L 5.183594 -10.980469 L 4.898438 -10.710938 L 4.757812 -10.445312 L 4.648438 -10.128906 L 4.503906 -9.910156 L 3.875 -8.460938 L 3.703125 -8.222656 L 3.625 -7.910156 L 3.449219 -7.609375 L 3.355469 -7.324219 L 1.75 -3.953125 L 1.652344 -3.609375 L 1.496094 -3.371094 L 1.386719 -3.054688 L 1.101562 -2.550781 L 0.867188 -1.921875 L 0.691406 -1.703125 L 0.613281 -1.417969 L 0.300781 -0.789062 L 0.203125 -0.472656 L 0.285156 -0.078125 L 0.597656 0.015625 L 1.214844 -0.015625 L 1.527344 0.015625 L 2.410156 -0.015625 L 2.773438 -0.125 L 3.070312 -0.410156 L 3.355469 -0.929688 L 3.65625 -1.230469 L 3.984375 -1.402344 L 4.285156 -1.355469 L 4.945312 -1.417969 L 5.230469 -1.371094 L 6.773438 -1.386719 L 7.058594 -1.355469 L 7.402344 -1.402344 L 7.75 -1.230469 L 8.050781 -0.976562 L 8.191406 -0.675781 L 8.285156 -0.394531 L 8.601562 -0.15625 L 8.964844 0 Z M 5.71875 -3.890625 L 5.402344 -3.953125 L 5.042969 -3.921875 L 4.789062 -4.03125 L 4.773438 -4.332031 L 5.515625 -6.035156 L 5.6875 -6.175781 L 5.90625 -6.050781 L 6.648438 -4.316406 L 6.585938 -4.03125 L 6.347656 -3.90625 Z M 5.71875 -3.890625 "/></g></g></g><g fill="#f7b43d" fill-opacity="1"><g transform="translate(78.949974, 24.422096)"><g><path d="M 5.464844 0.15625 L 7.042969 0.15625 L 8.222656 -0.125 L 9.34375 -0.691406 L 9.832031 -1.070312 L 10.066406 -1.324219 L 10.304688 -1.511719 L 10.492188 -1.734375 L 10.648438 -2 L 10.792969 -2.285156 L 10.980469 -2.503906 L 11.296875 -3.433594 L 11.421875 -4.03125 L 11.4375 -4.300781 L 11.5 -4.585938 L 11.5 -4.898438 L 11.53125 -5.199219 L 11.5 -5.796875 L 11.34375 -6.066406 L 11.042969 -6.222656 L 10.710938 -6.238281 L 10.382812 -6.285156 L 8.253906 -6.238281 L 7.308594 -6.300781 L 6.710938 -6.253906 L 6.394531 -6.097656 L 6.253906 -5.796875 L 6.253906 -4.300781 L 6.394531 -4.046875 L 6.679688 -3.875 L 7.136719 -3.84375 L 7.925781 -3.90625 L 8.207031 -3.859375 L 8.445312 -3.75 L 8.492188 -3.480469 L 8.332031 -3.214844 L 8.097656 -2.945312 L 7.875 -2.773438 L 7.355469 -2.566406 L 6.742188 -2.425781 L 6.332031 -2.410156 L 5.53125 -2.503906 L 4.679688 -2.851562 L 4.207031 -3.292969 L 4.03125 -3.511719 L 3.734375 -4.082031 L 3.609375 -4.535156 L 3.527344 -5.042969 L 3.511719 -5.953125 L 3.625 -6.570312 L 3.875 -7.136719 L 4.363281 -7.875 L 4.914062 -8.269531 L 5.183594 -8.414062 L 5.480469 -8.445312 L 5.75 -8.570312 L 6.710938 -8.601562 L 7.292969 -8.445312 L 7.59375 -8.316406 L 7.894531 -8.113281 L 8.082031 -7.910156 L 8.285156 -7.640625 L 8.617188 -7.371094 L 8.996094 -7.261719 L 9.484375 -7.246094 L 9.957031 -7.308594 L 10.710938 -7.261719 L 11.105469 -7.4375 L 11.199219 -7.703125 L 10.980469 -8.347656 L 10.839844 -8.632812 L 10.207031 -9.546875 L 9.863281 -9.832031 L 9.609375 -10.066406 L 9.375 -10.253906 L 8.269531 -10.839844 L 7.941406 -10.902344 L 7.199219 -11.105469 L 5.734375 -11.167969 L 5.417969 -11.152344 L 5.152344 -11.058594 L 4.851562 -11.042969 L 3.640625 -10.601562 L 2.773438 -10.066406 L 2.078125 -9.453125 L 1.875 -9.199219 L 1.636719 -8.964844 L 1.464844 -8.726562 L 0.882812 -7.546875 L 0.597656 -5.988281 L 0.582031 -5.480469 L 0.660156 -4.378906 L 1.101562 -2.898438 L 1.386719 -2.363281 L 1.75 -1.828125 L 2.378906 -1.164062 L 2.898438 -0.804688 L 3.984375 -0.171875 L 4.253906 -0.09375 L 5.152344 0.0625 Z M 5.464844 0.15625 "/></g></g></g><g fill="#f7b43d" fill-opacity="1"><g transform="translate(91.016311, 24.422096)"><g><path d="M 5.480469 0.046875 L 7.734375 0.015625 L 8.066406 -0.125 L 8.238281 -0.457031 L 8.238281 -2.046875 L 8.066406 -2.363281 L 7.734375 -2.503906 L 7.371094 -2.472656 L 7.074219 -2.519531 L 6.269531 -2.535156 L 5.75 -2.472656 L 5.433594 -2.503906 L 5.089844 -2.488281 L 4.789062 -2.535156 L 4.441406 -2.503906 L 4.113281 -2.664062 L 3.984375 -2.945312 L 3.984375 -3.9375 L 4.128906 -4.269531 L 4.410156 -4.441406 L 4.882812 -4.457031 L 5.386719 -4.410156 L 5.988281 -4.441406 L 6.632812 -4.425781 L 6.949219 -4.457031 L 7.308594 -4.441406 L 7.625 -4.570312 L 7.734375 -4.882812 L 7.78125 -6.300781 L 7.625 -6.742188 L 7.261719 -6.949219 L 6.332031 -6.949219 L 6.003906 -6.914062 L 5.339844 -6.964844 L 4.425781 -6.929688 L 4.097656 -7.074219 L 3.96875 -7.5625 L 3.96875 -8.050781 L 4.113281 -8.347656 L 4.457031 -8.476562 L 4.757812 -8.460938 L 5.058594 -8.523438 L 7.308594 -8.492188 L 7.609375 -8.507812 L 7.941406 -8.695312 L 8.097656 -8.980469 L 8.082031 -9.292969 L 8.097656 -9.609375 L 8.066406 -10.554688 L 7.925781 -10.855469 L 7.609375 -10.980469 L 7.277344 -10.980469 L 6.996094 -11.042969 L 5.71875 -11.027344 L 5.371094 -10.996094 L 5.058594 -11.027344 L 4.789062 -11.011719 L 4.472656 -11.042969 L 3.183594 -11.011719 L 2.867188 -11.058594 L 2.566406 -10.996094 L 2.285156 -11.027344 L 1.96875 -10.996094 L 1.652344 -11.011719 L 1.324219 -10.886719 L 1.148438 -10.554688 L 1.179688 -9.957031 L 1.132812 -9.308594 L 1.179688 -8.964844 L 1.148438 -7.421875 L 1.199219 -7.089844 L 1.164062 -6.789062 L 1.148438 -5.5 L 1.199219 -5.214844 L 1.179688 -2.664062 L 1.148438 -2.363281 L 1.199219 -2.046875 L 1.148438 -0.960938 L 1.179688 -0.613281 L 1.308594 -0.1875 L 1.78125 0.015625 L 2.914062 0.03125 L 3.261719 0 L 3.542969 0.015625 L 4.191406 -0.03125 L 4.488281 0.03125 L 4.851562 0.046875 L 5.167969 0.015625 Z M 5.480469 0.046875 "/></g></g></g><g fill="#f7b43d" fill-opacity="1"><g transform="translate(100.042443, 24.422096)"><g/></g></g><g fill="#f7b43d" fill-opacity="1"><g transform="translate(104.31134, 24.422096)"><g><path d="M 1.179688 -0.488281 L 1.324219 -0.171875 L 1.621094 0.015625 L 2.140625 -0.03125 L 2.613281 0.015625 L 4.898438 -0.015625 L 5.214844 0.03125 L 6.835938 -0.046875 L 7.121094 -0.09375 L 8.003906 -0.347656 L 8.285156 -0.488281 L 8.917969 -0.992188 L 9.34375 -1.574219 L 9.5 -1.890625 L 9.59375 -2.191406 L 9.71875 -2.488281 L 9.75 -3.765625 L 9.578125 -4.332031 L 9.292969 -4.976562 L 9.089844 -5.214844 L 8.835938 -5.433594 L 8.679688 -5.796875 L 8.789062 -6.097656 L 9.089844 -6.710938 L 9.277344 -7.277344 L 9.292969 -7.8125 L 9.261719 -8.300781 L 9.136719 -8.871094 L 9.027344 -9.199219 L 8.507812 -9.925781 L 8.269531 -10.144531 L 8.035156 -10.304688 L 7.8125 -10.476562 L 7.546875 -10.632812 L 7.246094 -10.777344 L 6.980469 -10.871094 L 6.363281 -11.011719 L 4.742188 -11.058594 L 4.457031 -10.996094 L 3.84375 -11.074219 L 3.558594 -11.011719 L 1.652344 -11.042969 L 1.308594 -10.886719 L 1.148438 -10.554688 L 1.148438 -10.207031 L 1.179688 -9.925781 L 1.164062 -9.59375 L 1.179688 -9.308594 L 1.148438 -8.382812 L 1.199219 -7.71875 L 1.132812 -4.710938 L 1.179688 -4.238281 L 1.148438 -0.789062 Z M 4.410156 -6.726562 L 4.082031 -6.914062 L 3.90625 -7.355469 L 3.890625 -7.894531 L 4.082031 -8.347656 L 4.378906 -8.539062 L 6.003906 -8.429688 L 6.253906 -8.300781 L 6.378906 -8.050781 L 6.425781 -7.578125 L 6.316406 -7.121094 L 6.082031 -6.929688 L 5.625 -6.773438 Z M 4.363281 -2.519531 L 4.082031 -2.632812 L 3.875 -2.945312 L 3.921875 -3.890625 L 4.066406 -4.160156 L 4.332031 -4.363281 L 4.632812 -4.316406 L 4.960938 -4.347656 L 6.441406 -4.207031 L 6.710938 -4.097656 L 6.867188 -3.8125 L 6.964844 -3.417969 L 6.882812 -2.960938 L 6.710938 -2.742188 L 6.441406 -2.566406 L 5.578125 -2.488281 Z M 4.363281 -2.519531 "/></g></g></g><g fill="#f7b43d" fill-opacity="1"><g transform="translate(114.707924, 24.422096)"><g><path d="M 5.417969 0.203125 L 5.890625 0.15625 L 6.191406 0.171875 L 7.421875 -0.140625 L 7.988281 -0.441406 L 8.507812 -0.789062 L 8.949219 -1.230469 L 9.308594 -1.78125 L 9.40625 -2.09375 L 9.5625 -2.363281 L 9.703125 -3.023438 L 9.78125 -3.78125 L 9.78125 -8.035156 L 9.75 -8.332031 L 9.78125 -8.679688 L 9.75 -8.933594 L 9.75 -10.238281 L 9.796875 -10.554688 L 9.59375 -10.886719 L 9.246094 -10.996094 L 8.253906 -10.964844 L 7.59375 -11.011719 L 7.261719 -10.855469 L 7.089844 -10.507812 L 7.121094 -4.300781 L 7.011719 -3.324219 L 6.914062 -3.085938 L 6.742188 -2.773438 L 6.476562 -2.582031 L 5.921875 -2.378906 L 4.976562 -2.378906 L 4.617188 -2.457031 L 4.347656 -2.613281 L 4.097656 -2.804688 L 3.90625 -3.054688 L 3.8125 -3.355469 L 3.71875 -4.269531 L 3.765625 -9.34375 L 3.734375 -9.578125 L 3.765625 -10.082031 L 3.734375 -10.539062 L 3.542969 -10.886719 L 3.214844 -11.027344 L 2.914062 -11.027344 L 2.597656 -10.980469 L 1.921875 -11.042969 L 1.589844 -10.996094 L 1.261719 -10.871094 L 1.054688 -10.570312 L 1.085938 -10.253906 L 1.085938 -9.878906 L 1.054688 -9.625 L 1.101562 -7.421875 L 1.054688 -7.105469 L 1.085938 -6.804688 L 1.039062 -4.269531 L 1.132812 -3.007812 L 1.292969 -2.363281 L 1.542969 -1.828125 L 1.90625 -1.261719 L 2.09375 -1.039062 L 2.332031 -0.835938 L 2.835938 -0.503906 L 3.152344 -0.363281 L 3.386719 -0.21875 L 3.984375 0.046875 L 4.601562 0.171875 L 4.914062 0.171875 Z M 5.417969 0.203125 "/></g></g></g><g fill="#f7b43d" fill-opacity="1"><g transform="translate(125.577081, 24.422096)"><g><path d="M 4.851562 0.046875 L 5.324219 0.046875 L 5.8125 -0.015625 L 6.128906 -0.015625 L 6.585938 -0.15625 L 7.230469 -0.269531 L 7.972656 -0.582031 L 9.027344 -1.292969 L 9.796875 -2.285156 L 9.957031 -2.597656 L 10.144531 -2.851562 L 10.398438 -3.464844 L 10.476562 -3.765625 L 10.539062 -4.097656 L 10.632812 -4.363281 L 10.679688 -4.679688 L 10.679688 -5.007812 L 10.726562 -5.515625 L 10.710938 -5.96875 L 10.492188 -7.214844 L 10.289062 -7.8125 L 10.160156 -8.113281 L 9.625 -8.949219 L 8.789062 -9.878906 L 7.988281 -10.414062 L 7.6875 -10.585938 L 7.371094 -10.648438 L 7.105469 -10.777344 L 6.773438 -10.855469 L 5.84375 -10.996094 L 2.253906 -11.027344 L 1.96875 -10.980469 L 1.652344 -10.996094 L 1.308594 -10.855469 L 1.164062 -10.523438 L 1.148438 -1.71875 L 1.179688 -1.417969 L 1.179688 -0.613281 L 1.339844 -0.125 L 1.652344 0.03125 L 1.96875 0 L 3.890625 0.03125 L 4.207031 -0.015625 Z M 4.804688 -2.535156 L 4.503906 -2.566406 L 4.144531 -2.742188 L 4.015625 -3.039062 L 4 -3.308594 L 4.015625 -3.953125 L 3.953125 -4.726562 L 4.015625 -5.515625 L 3.984375 -7.6875 L 4.015625 -7.957031 L 4.175781 -8.316406 L 4.679688 -8.429688 L 5.339844 -8.445312 L 5.796875 -8.398438 L 6.410156 -8.222656 L 6.695312 -8.082031 L 6.929688 -7.910156 L 7.167969 -7.6875 L 7.402344 -7.402344 L 7.5625 -7.136719 L 7.703125 -6.851562 L 7.957031 -5.464844 L 7.796875 -4.363281 L 7.53125 -3.78125 L 6.949219 -3.121094 L 6.410156 -2.773438 L 5.953125 -2.632812 L 5.277344 -2.550781 Z M 4.804688 -2.535156 "/></g></g></g><g fill="#f7b43d" fill-opacity="1"><g transform="translate(137.029084, 24.422096)"><g><path d="M 4.851562 0.046875 L 5.324219 0.046875 L 5.8125 -0.015625 L 6.128906 -0.015625 L 6.585938 -0.15625 L 7.230469 -0.269531 L 7.972656 -0.582031 L 9.027344 -1.292969 L 9.796875 -2.285156 L 9.957031 -2.597656 L 10.144531 -2.851562 L 10.398438 -3.464844 L 10.476562 -3.765625 L 10.539062 -4.097656 L 10.632812 -4.363281 L 10.679688 -4.679688 L 10.679688 -5.007812 L 10.726562 -5.515625 L 10.710938 -5.96875 L 10.492188 -7.214844 L 10.289062 -7.8125 L 10.160156 -8.113281 L 9.625 -8.949219 L 8.789062 -9.878906 L 7.988281 -10.414062 L 7.6875 -10.585938 L 7.371094 -10.648438 L 7.105469 -10.777344 L 6.773438 -10.855469 L 5.84375 -10.996094 L 2.253906 -11.027344 L 1.96875 -10.980469 L 1.652344 -10.996094 L 1.308594 -10.855469 L 1.164062 -10.523438 L 1.148438 -1.71875 L 1.179688 -1.417969 L 1.179688 -0.613281 L 1.339844 -0.125 L 1.652344 0.03125 L 1.96875 0 L 3.890625 0.03125 L 4.207031 -0.015625 Z M 4.804688 -2.535156 L 4.503906 -2.566406 L 4.144531 -2.742188 L 4.015625 -3.039062 L 4 -3.308594 L 4.015625 -3.953125 L 3.953125 -4.726562 L 4.015625 -5.515625 L 3.984375 -7.6875 L 4.015625 -7.957031 L 4.175781 -8.316406 L 4.679688 -8.429688 L 5.339844 -8.445312 L 5.796875 -8.398438 L 6.410156 -8.222656 L 6.695312 -8.082031 L 6.929688 -7.910156 L 7.167969 -7.6875 L 7.402344 -7.402344 L 7.5625 -7.136719 L 7.703125 -6.851562 L 7.957031 -5.464844 L 7.796875 -4.363281 L 7.53125 -3.78125 L 6.949219 -3.121094 L 6.410156 -2.773438 L 5.953125 -2.632812 L 5.277344 -2.550781 Z M 4.804688 -2.535156 "/></g></g></g><g fill="#f7b43d" fill-opacity="1"><g transform="translate(148.481087, 24.422096)"><g><path d="M 5.277344 0.0625 L 5.90625 0.03125 L 6.191406 -0.125 L 6.347656 -0.425781 L 6.347656 -1.984375 L 6.160156 -2.285156 L 5.8125 -2.457031 L 5.480469 -2.457031 L 5.105469 -2.582031 L 4.914062 -2.945312 L 4.960938 -3.246094 L 4.945312 -4.976562 L 4.976562 -5.324219 L 4.914062 -6.460938 L 4.976562 -8.050781 L 5.089844 -8.414062 L 5.433594 -8.554688 L 5.75 -8.601562 L 6.082031 -8.726562 L 6.238281 -8.980469 L 6.253906 -10.539062 L 6.066406 -10.839844 L 5.78125 -11.011719 L 3.875 -11.011719 L 3.59375 -11.042969 L 3.277344 -10.980469 L 1.984375 -10.980469 L 1.6875 -11.027344 L 1.324219 -11.027344 L 1.007812 -10.871094 L 0.851562 -10.492188 L 0.898438 -9.328125 L 0.867188 -9.027344 L 1.039062 -8.710938 L 1.386719 -8.539062 L 1.703125 -8.539062 L 2 -8.347656 L 2.140625 -7.925781 L 2.191406 -3.085938 L 2.015625 -2.613281 L 0.976562 -2.300781 L 0.804688 -2.015625 L 0.757812 -0.566406 L 0.914062 -0.140625 L 1.230469 0 L 1.527344 0 L 1.828125 -0.03125 L 2.285156 0.03125 L 2.773438 0.015625 L 3.085938 -0.015625 L 3.71875 0.046875 L 4.191406 -0.015625 L 4.960938 -0.015625 Z M 5.277344 0.0625 "/></g></g></g><g fill="#f7b43d" fill-opacity="1"><g transform="translate(155.632684, 24.422096)"><g><path d="M 5.480469 0.046875 L 7.734375 0.015625 L 8.066406 -0.125 L 8.238281 -0.457031 L 8.238281 -2.046875 L 8.066406 -2.363281 L 7.734375 -2.503906 L 7.371094 -2.472656 L 7.074219 -2.519531 L 6.269531 -2.535156 L 5.75 -2.472656 L 5.433594 -2.503906 L 5.089844 -2.488281 L 4.789062 -2.535156 L 4.441406 -2.503906 L 4.113281 -2.664062 L 3.984375 -2.945312 L 3.984375 -3.9375 L 4.128906 -4.269531 L 4.410156 -4.441406 L 4.882812 -4.457031 L 5.386719 -4.410156 L 5.988281 -4.441406 L 6.632812 -4.425781 L 6.949219 -4.457031 L 7.308594 -4.441406 L 7.625 -4.570312 L 7.734375 -4.882812 L 7.78125 -6.300781 L 7.625 -6.742188 L 7.261719 -6.949219 L 6.332031 -6.949219 L 6.003906 -6.914062 L 5.339844 -6.964844 L 4.425781 -6.929688 L 4.097656 -7.074219 L 3.96875 -7.5625 L 3.96875 -8.050781 L 4.113281 -8.347656 L 4.457031 -8.476562 L 4.757812 -8.460938 L 5.058594 -8.523438 L 7.308594 -8.492188 L 7.609375 -8.507812 L 7.941406 -8.695312 L 8.097656 -8.980469 L 8.082031 -9.292969 L 8.097656 -9.609375 L 8.066406 -10.554688 L 7.925781 -10.855469 L 7.609375 -10.980469 L 7.277344 -10.980469 L 6.996094 -11.042969 L 5.71875 -11.027344 L 5.371094 -10.996094 L 5.058594 -11.027344 L 4.789062 -11.011719 L 4.472656 -11.042969 L 3.183594 -11.011719 L 2.867188 -11.058594 L 2.566406 -10.996094 L 2.285156 -11.027344 L 1.96875 -10.996094 L 1.652344 -11.011719 L 1.324219 -10.886719 L 1.148438 -10.554688 L 1.179688 -9.957031 L 1.132812 -9.308594 L 1.179688 -8.964844 L 1.148438 -7.421875 L 1.199219 -7.089844 L 1.164062 -6.789062 L 1.148438 -5.5 L 1.199219 -5.214844 L 1.179688 -2.664062 L 1.148438 -2.363281 L 1.199219 -2.046875 L 1.148438 -0.960938 L 1.179688 -0.613281 L 1.308594 -0.1875 L 1.78125 0.015625 L 2.914062 0.03125 L 3.261719 0 L 3.542969 0.015625 L 4.191406 -0.03125 L 4.488281 0.03125 L 4.851562 0.046875 L 5.167969 0.015625 Z M 5.480469 0.046875 "/></g></g></g><g fill="#f7b43d" fill-opacity="1"><g transform="translate(164.658816, 24.422096)"><g><path d="M 4.238281 0.140625 L 5.480469 0.171875 L 5.796875 0.140625 L 6.113281 0.0625 L 6.425781 0.015625 L 6.742188 -0.109375 L 7.027344 -0.140625 L 7.324219 -0.285156 L 8.398438 -0.929688 L 8.855469 -1.402344 L 9.011719 -1.621094 L 9.183594 -1.96875 L 9.277344 -2.253906 L 9.375 -2.519531 L 9.46875 -3.308594 L 9.4375 -3.8125 L 9.199219 -4.726562 L 9.027344 -4.976562 L 8.617188 -5.449219 L 8.332031 -5.703125 L 8.082031 -5.828125 L 7.796875 -6.003906 L 6.570312 -6.378906 L 6.253906 -6.425781 L 5.9375 -6.441406 L 5.609375 -6.507812 L 5.152344 -6.507812 L 4.316406 -6.679688 L 3.734375 -6.964844 L 3.496094 -7.183594 L 3.433594 -7.65625 L 3.511719 -8.082031 L 3.703125 -8.285156 L 3.9375 -8.460938 L 4.191406 -8.601562 L 4.472656 -8.664062 L 4.976562 -8.679688 L 5.480469 -8.617188 L 5.765625 -8.539062 L 6.050781 -8.347656 L 6.316406 -8.128906 L 6.554688 -7.8125 L 6.898438 -7.609375 L 7.640625 -7.671875 L 8.066406 -7.640625 L 8.382812 -7.640625 L 8.664062 -7.609375 L 8.964844 -7.828125 L 9.089844 -8.097656 L 9.027344 -8.398438 L 8.996094 -8.695312 L 8.554688 -9.515625 L 8.207031 -9.988281 L 7.167969 -10.710938 L 6.285156 -11.011719 L 5.671875 -11.136719 L 4.457031 -11.167969 L 4.113281 -11.074219 L 3.796875 -11.058594 L 3.511719 -11.011719 L 2.914062 -10.824219 L 2.378906 -10.507812 L 1.621094 -9.988281 L 1.070312 -9.246094 L 0.789062 -8.382812 L 0.742188 -7.609375 L 0.757812 -7.121094 L 0.867188 -6.492188 L 1.117188 -5.9375 L 1.703125 -5.214844 L 2.773438 -4.632812 L 3.339844 -4.441406 L 5.8125 -4.160156 L 6.378906 -3.890625 L 6.585938 -3.703125 L 6.679688 -3.308594 L 6.554688 -2.914062 L 6.347656 -2.679688 L 5.8125 -2.441406 L 5.324219 -2.410156 L 5.042969 -2.363281 L 4.238281 -2.441406 L 3.96875 -2.582031 L 3.703125 -2.757812 L 3.183594 -3.324219 L 2.867188 -3.449219 L 2.582031 -3.417969 L 2.285156 -3.464844 L 1.070312 -3.402344 L 0.789062 -3.277344 L 0.660156 -2.945312 L 0.707031 -2.632812 L 0.773438 -2.316406 L 0.867188 -2.03125 L 1.164062 -1.449219 L 1.386719 -1.246094 L 1.589844 -1.007812 L 2.140625 -0.660156 L 2.363281 -0.425781 L 2.664062 -0.285156 L 2.976562 -0.1875 L 3.59375 0.03125 Z M 4.238281 0.140625 "/></g></g></g></svg>